<svg width="28" height="28" viewBox="0 0 28 28" fill="none" xmlns="http://www.w3.org/2000/svg">
<path d="M27.3333 19.5865C27.3333 24.4398 24.44 27.3332 19.5866 27.3332H18C17.2666 27.3332 16.6666 26.7332 16.6666 25.9998V18.3065C16.6666 17.9465 16.96 17.6398 17.32 17.6398L19.6666 17.5998C19.8533 17.5865 20.0133 17.4532 20.0533 17.2665L20.52 14.7198C20.529 14.6621 20.5255 14.6031 20.5095 14.5469C20.4936 14.4907 20.4656 14.4386 20.4276 14.3942C20.3896 14.3499 20.3424 14.3143 20.2893 14.2899C20.2362 14.2656 20.1784 14.253 20.12 14.2532L17.28 14.2932C16.9066 14.2932 16.6133 13.9998 16.6 13.6398L16.5466 10.3732C16.5466 10.1598 16.72 9.97317 16.9466 9.97317L20.1466 9.91984C20.3733 9.91984 20.5466 9.7465 20.5466 9.51984L20.4933 6.31984C20.4933 6.09317 20.32 5.91984 20.0933 5.91984L16.4933 5.97317C15.9678 5.98115 15.449 6.09276 14.9667 6.3016C14.4844 6.51044 14.048 6.8124 13.6826 7.19018C13.3172 7.56797 13.03 8.01414 12.8373 8.50314C12.6447 8.99214 12.5504 9.51434 12.56 10.0398L12.6266 13.7065C12.64 14.0798 12.3466 14.3732 11.9733 14.3865L10.3733 14.4132C10.1466 14.4132 9.97329 14.5865 9.97329 14.8132L10.0133 17.3465C10.0133 17.5732 10.1866 17.7465 10.4133 17.7465L12.0133 17.7198C12.3866 17.7198 12.68 18.0132 12.6933 18.3732L12.8133 25.9732C12.8266 26.7198 12.2266 27.3332 11.48 27.3332H8.41329C3.55996 27.3332 0.666626 24.4398 0.666626 19.5732V8.41317C0.666626 3.55984 3.55996 0.666504 8.41329 0.666504H19.5866C24.44 0.666504 27.3333 3.55984 27.3333 8.41317V19.5865Z" fill="white"/>
</svg>