<svg width="32" height="32" viewBox="0 0 32 32" fill="none" xmlns="http://www.w3.org/2000/svg">
<path d="M21.5866 2.6665H10.4133C5.55996 2.6665 2.66663 5.55984 2.66663 10.4132V21.5732C2.66663 26.4398 5.55996 29.3332 10.4133 29.3332H21.5733C26.4266 29.3332 29.32 26.4398 29.32 21.5865V10.4132C29.3333 5.55984 26.44 2.6665 21.5866 2.6665ZM16 21.1732C13.1466 21.1732 10.8266 18.8532 10.8266 15.9998C10.8266 13.1465 13.1466 10.8265 16 10.8265C18.8533 10.8265 21.1733 13.1465 21.1733 15.9998C21.1733 18.8532 18.8533 21.1732 16 21.1732ZM23.8933 9.17317C23.8266 9.33317 23.7333 9.47984 23.6133 9.61317C23.48 9.73317 23.3333 9.8265 23.1733 9.89317C22.9306 9.99617 22.6628 10.0245 22.4039 9.97467C22.1451 9.9248 21.907 9.79895 21.72 9.61317C21.6 9.47984 21.5066 9.33317 21.44 9.17317C21.3715 9.01293 21.3352 8.84076 21.3333 8.6665C21.3333 8.49317 21.3733 8.31984 21.44 8.15984C21.5066 7.9865 21.6 7.85317 21.72 7.71984C22.0266 7.41317 22.4933 7.2665 22.92 7.35984C23.0133 7.37317 23.0933 7.39984 23.1733 7.43984C23.2533 7.4665 23.3333 7.5065 23.4133 7.55984C23.48 7.59984 23.5466 7.6665 23.6133 7.71984C23.7333 7.85317 23.8266 7.9865 23.8933 8.15984C23.96 8.31984 24 8.49317 24 8.6665C24 8.83984 23.96 9.01317 23.8933 9.17317Z" fill="white"/>
</svg>
