<svg width="33" height="32" viewBox="0 0 33 32" fill="none" xmlns="http://www.w3.org/2000/svg">
<path fill-rule="evenodd" clip-rule="evenodd" d="M27.6672 2.6665H7.0539C6.6139 2.6665 6.18724 2.89317 5.94724 3.2665L3.8939 6.33317C3.74738 6.54977 3.66848 6.805 3.66724 7.0665V23.9998C3.66724 24.7332 4.26724 25.3332 5.00057 25.3332H7.66724C8.40057 25.3332 9.00057 25.9332 9.00057 26.6665V27.9998C9.00057 28.7332 9.60057 29.3332 10.3339 29.3332H12.2806C12.7206 29.3332 13.1472 29.1065 13.3872 28.7332L15.2672 25.9198C15.5206 25.5465 15.9339 25.3198 16.3739 25.3198H21.7739C22.1339 25.3198 22.4672 25.1732 22.7206 24.9332L28.6006 19.0532C28.7247 18.929 28.8229 18.7814 28.8893 18.6188C28.9557 18.4562 28.989 18.2821 28.9872 18.1065V3.99984C29.0006 3.2665 28.4006 2.6665 27.6672 2.6665ZM14.7206 17.1465C14.7206 17.5732 14.3739 17.9065 13.9606 17.9065H12.4406C12.239 17.9065 12.0457 17.8264 11.9032 17.6839C11.7606 17.5414 11.6806 17.3481 11.6806 17.1465V9.53317C11.6806 9.1065 12.0272 8.77317 12.4406 8.77317H13.9606C14.3872 8.77317 14.7206 9.11984 14.7206 9.53317V17.1465ZM22.3339 17.1465C22.3339 17.5732 21.9872 17.9065 21.5739 17.9065H20.0539C19.9541 17.9065 19.8553 17.8868 19.7631 17.8487C19.6709 17.8105 19.5871 17.7545 19.5165 17.6839C19.4459 17.6133 19.3899 17.5296 19.3518 17.4373C19.3136 17.3451 19.2939 17.2463 19.2939 17.1465V9.53317C19.2939 9.1065 19.6406 8.77317 20.0539 8.77317H21.5739C22.0006 8.77317 22.3339 9.11984 22.3339 9.53317V17.1465Z" fill="white"/>
</svg>
